<?xml version="1.0" standalone="no"?>
<!DOCTYPE svg PUBLIC "-//W3C//DTD SVG 20010904//EN"
 "http://www.w3.org/TR/2001/REC-SVG-20010904/DTD/svg10.dtd">
<svg version="1.0" xmlns="http://www.w3.org/2000/svg"
 width="1280.000000pt" height="939.000000pt" viewBox="0 0 1280.000000 939.000000"
 preserveAspectRatio="xMidYMid meet">
<metadata>
Created by potrace 1.16, written by Peter Selinger 2001-2019
</metadata>
<g transform="translate(0.000000,939.000000) scale(0.100000,-0.100000)"
fill="#000000" stroke="none">
<path d="M8408 8810 c-804 -42 -1642 -243 -2395 -576 -523 -231 -1015 -534
-1438 -885 -120 -100 -490 -468 -499 -497 -4 -13 0 -31 10 -47 20 -30 3 -39
171 93 514 405 1257 778 2004 1007 1298 397 2617 404 3594 18 287 -113 586
-284 805 -459 110 -89 287 -266 373 -374 228 -286 365 -594 440 -990 47 -244
52 -308 52 -640 -1 -270 -4 -339 -23 -480 -98 -723 -361 -1376 -749 -1863
l-55 -69 23 -26 c13 -15 25 -29 26 -31 5 -9 234 215 400 391 727 774 1090
1401 1214 2095 30 168 37 520 15 693 -68 517 -279 1017 -593 1405 -91 112
-279 302 -394 397 -565 467 -1361 757 -2264 827 -197 15 -530 20 -717 11z"/>
<path d="M4115 7621 c-1292 -558 -2317 -1313 -2980 -2196 -393 -523 -623
-1038 -707 -1580 -27 -178 -30 -528 -5 -700 51 -358 180 -723 357 -1005 383
-613 1048 -1081 1909 -1344 446 -137 899 -214 1440 -247 248 -15 872 -6 1116
15 1934 174 3648 848 4980 1959 180 150 395 347 395 361 0 7 -10 22 -22 34
l-23 21 -60 -46 c-1010 -764 -2050 -1246 -3325 -1541 -1301 -302 -2584 -320
-3618 -52 -379 99 -740 241 -1018 400 -386 221 -689 496 -897 810 -295 447
-405 1003 -317 1605 186 1265 1217 2511 2840 3430 85 48 156 89 158 90 7 5
-22 65 -31 64 -7 0 -93 -35 -192 -78z"/>
<path d="M8940 6309 c-480 -62 -857 -296 -1020 -634 -55 -115 -81 -227 -87
-375 -5 -115 -2 -148 16 -222 36 -151 115 -282 240 -400 130 -123 258 -203
521 -323 196 -90 293 -148 366 -221 78 -78 98 -127 92 -226 -6 -89 -29 -137
-96 -200 -58 -55 -101 -78 -202 -109 -67 -22 -93 -24 -250 -24 -185 1 -270 13
-443 61 -111 31 -166 52 -299 116 -59 28 -109 50 -111 47 -9 -11 -257 -575
-257 -585 0 -14 126 -85 220 -124 111 -47 305 -97 464 -122 208 -32 540 -32
718 0 626 112 991 448 1048 964 17 154 -2 311 -52 431 -36 88 -124 212 -202
284 -128 120 -214 171 -586 353 -203 98 -301 164 -354 237 -123 168 -26 352
224 427 203 61 552 27 807 -79 48 -20 96 -37 106 -38 16 -2 40 50 137 298 66
164 118 300 117 301 -1 1 -34 15 -72 32 -154 67 -325 110 -517 131 -112 13
-432 12 -528 0z"/>
<path d="M3185 6258 c-2 -7 -139 -735 -305 -1618 -166 -883 -304 -1613 -306
-1622 -5 -17 52 -18 1095 -18 1039 0 1100 1 1105 18 3 9 28 141 56 292 28 151
54 283 56 293 5 16 -34 17 -726 17 l-731 0 7 38 c4 20 35 186 69 367 l61 330
654 5 653 5 59 305 c31 168 58 306 58 308 0 1 -292 2 -650 2 -556 0 -650 2
-650 14 0 13 103 570 115 623 l5 23 682 2 681 3 58 295 c32 162 59 303 59 313
0 16 -57 17 -1050 17 -832 0 -1051 -3 -1055 -12z"/>
<path d="M5455 5978 c-31 -161 -59 -303 -62 -315 l-5 -23 401 0 401 0 -5 -22
c-10 -43 -485 -2593 -485 -2605 0 -10 79 -13 364 -13 282 0 365 3 368 13 3 6
115 600 249 1320 l244 1307 363 0 c337 0 363 1 368 18 23 75 62 161 96 214
102 159 353 344 510 375 16 3 28 9 28 14 0 5 -602 9 -1389 9 l-1389 0 -57
-292z"/>
<path d="M11515 2986 c-142 -46 -249 -150 -294 -284 -26 -75 -28 -214 -6 -288
35 -118 149 -241 265 -285 30 -12 89 -23 130 -26 144 -10 256 31 354 129 76
77 115 152 129 253 29 199 -72 390 -252 477 -60 30 -76 33 -176 35 -71 2 -124
-2 -150 -11z m287 -88 c111 -52 198 -166 216 -284 47 -298 -254 -533 -524
-410 -211 96 -290 365 -163 555 46 69 120 127 193 153 77 28 203 21 278 -14z"/>
<path d="M11460 2550 l0 -250 50 0 50 0 0 100 0 100 48 -1 c108 -1 152 -43
152 -146 l0 -53 46 0 46 0 -7 78 c-9 88 -24 126 -61 145 l-26 14 31 13 c45 18
64 61 59 126 -9 103 -51 124 -248 124 l-140 0 0 -250z m266 165 c30 -19 40
-57 24 -94 -15 -38 -48 -51 -125 -51 l-65 0 0 86 0 87 71 -6 c39 -3 82 -13 95
-22z"/>
</g>
</svg>
