<?xml version="1.0" standalone="no"?>
<!DOCTYPE svg PUBLIC "-//W3C//DTD SVG 20010904//EN"
 "http://www.w3.org/TR/2001/REC-SVG-20010904/DTD/svg10.dtd">
<svg version="1.0" xmlns="http://www.w3.org/2000/svg"
 width="939.000000pt" height="955.000000pt" viewBox="0 0 939.000000 955.000000"
 preserveAspectRatio="xMidYMid meet">
<metadata>
Created by potrace 1.16, written by Peter Selinger 2001-2019
</metadata>
<g transform="translate(0.000000,955.000000) scale(0.100000,-0.100000)"
fill="#000000" stroke="none">
<path d="M4505 8974 c-121 -41 -274 -93 -340 -114 -66 -22 -129 -44 -140 -49
-11 -5 -96 -35 -190 -65 -93 -31 -178 -61 -187 -66 -10 -6 -22 -10 -27 -10
-26 0 -121 -43 -121 -54 0 -8 40 -28 93 -46 50 -18 106 -39 122 -46 17 -7 68
-27 115 -44 47 -17 94 -34 105 -39 11 -5 45 -17 75 -27 30 -9 60 -20 65 -24 6
-3 46 -19 90 -35 44 -15 94 -34 110 -41 49 -21 157 -61 200 -74 22 -7 45 -16
50 -20 6 -4 52 -22 103 -40 101 -35 158 -37 224 -6 32 15 286 109 398 148 30
10 64 23 75 28 17 9 137 52 295 107 25 9 50 19 55 23 6 4 35 15 66 24 31 9 69
23 85 31 16 8 36 15 44 15 8 0 33 9 55 20 22 11 46 19 53 20 6 0 12 6 12 14 0
9 -47 31 -126 60 -69 25 -130 46 -136 46 -5 0 -24 6 -41 14 -18 8 -81 31 -142
51 -60 20 -119 41 -130 46 -11 5 -33 13 -50 18 -16 5 -88 30 -160 56 -71 26
-161 57 -200 70 -38 12 -109 37 -157 54 -49 17 -96 31 -105 31 -10 0 -117 -34
-238 -76z"/>
<path d="M3155 8510 c-93 -33 -264 -92 -380 -131 -115 -40 -239 -82 -275 -95
-36 -12 -146 -50 -245 -84 -180 -61 -255 -89 -255 -97 0 -8 28 -33 37 -33 9 0
166 -61 208 -80 11 -5 97 -39 190 -76 94 -37 188 -75 210 -85 22 -9 72 -30
110 -45 39 -14 84 -32 100 -39 124 -54 366 -145 384 -145 21 0 176 52 361 120
47 17 99 36 115 41 17 5 39 13 50 19 11 5 90 35 175 65 85 31 164 60 175 65
11 6 40 16 65 24 66 21 132 45 155 56 11 6 70 27 130 48 130 45 154 57 140 71
-10 10 -133 58 -270 106 -44 16 -84 32 -90 35 -5 4 -35 15 -65 25 -30 10 -59
21 -65 25 -5 4 -23 10 -40 14 -16 4 -43 14 -60 21 -16 8 -64 26 -105 41 -41
15 -86 31 -100 37 -14 6 -27 11 -30 12 -3 1 -18 7 -33 13 -15 7 -40 15 -55 18
-15 4 -31 10 -37 14 -5 4 -28 13 -50 20 -22 7 -44 16 -50 20 -5 5 -37 16 -70
25 -33 10 -64 21 -69 26 -22 20 -100 5 -261 -51z"/>
<path d="M6035 8539 c-33 -11 -73 -26 -90 -33 -16 -8 -46 -19 -65 -24 -19 -6
-114 -41 -210 -77 -96 -36 -254 -95 -350 -130 -96 -35 -206 -75 -245 -90 -38
-15 -94 -35 -123 -44 -68 -22 -84 -38 -57 -54 19 -11 199 -81 290 -112 22 -8
101 -37 175 -65 74 -28 185 -69 245 -92 61 -22 137 -51 170 -63 33 -12 110
-41 170 -63 61 -23 146 -55 190 -71 44 -17 94 -31 110 -31 28 0 111 29 305
107 47 19 110 43 140 54 30 11 69 26 85 33 17 8 163 66 325 131 162 64 314
124 338 133 75 30 59 41 -168 118 -58 19 -114 39 -125 44 -11 4 -94 34 -185
65 -91 31 -174 60 -185 65 -51 20 -311 110 -319 110 -4 0 -22 7 -39 15 -59 27
-275 95 -299 94 -12 -1 -50 -10 -83 -20z"/>
<path d="M1780 8040 c-14 -4 -144 -49 -290 -100 -146 -50 -317 -109 -380 -130
-63 -21 -207 -71 -320 -110 -113 -39 -226 -78 -253 -86 -26 -8 -69 -24 -95
-35 -43 -19 -46 -22 -28 -34 10 -8 62 -33 115 -56 90 -39 125 -54 226 -99 22
-10 74 -32 115 -50 41 -17 93 -40 115 -50 22 -9 56 -24 75 -33 102 -44 377
-163 455 -198 62 -27 104 -39 135 -39 31 0 125 29 310 95 146 53 279 102 297
110 17 8 37 15 45 15 7 0 26 7 41 15 16 8 50 21 75 29 26 8 108 38 182 66 74
28 149 55 165 60 17 6 39 14 50 20 11 5 71 28 133 50 126 44 152 56 152 70 0
10 -50 35 -135 68 -70 27 -226 91 -250 102 -11 5 -65 27 -120 49 -246 96 -412
163 -440 176 -16 8 -66 28 -110 45 -44 17 -94 38 -112 46 -33 15 -112 17 -153
4z"/>
<path d="M4655 8029 c-22 -10 -46 -19 -53 -19 -8 0 -28 -7 -45 -15 -18 -8
-108 -42 -202 -76 -192 -70 -248 -91 -286 -107 -15 -6 -46 -16 -70 -22 -24 -7
-48 -15 -54 -20 -5 -4 -28 -13 -50 -19 -22 -7 -49 -16 -60 -21 -35 -16 -149
-58 -175 -65 -14 -4 -38 -13 -55 -21 -16 -7 -73 -29 -125 -48 -53 -19 -95 -39
-95 -47 0 -14 98 -59 300 -139 72 -29 149 -60 172 -71 23 -10 47 -19 53 -19 7
0 24 -7 38 -15 15 -8 70 -31 122 -50 52 -20 104 -40 115 -45 49 -22 265 -110
270 -110 4 0 25 -8 48 -19 23 -10 80 -33 127 -51 97 -37 154 -38 230 -3 25 11
56 24 70 28 14 4 43 15 65 25 22 10 72 30 110 44 39 15 84 33 100 41 17 7 50
20 75 28 43 15 91 34 155 61 17 7 46 19 65 26 19 6 49 18 65 26 17 7 89 36
160 64 72 28 144 58 162 66 17 8 35 14 40 14 4 0 20 6 34 14 15 7 49 21 77 30
51 17 81 41 68 54 -4 4 -11 7 -14 8 -4 0 -20 6 -35 12 -16 7 -31 12 -35 12 -4
1 -25 9 -47 20 -22 11 -46 19 -53 20 -8 0 -28 6 -45 14 -57 26 -188 76 -199
76 -5 0 -24 7 -41 15 -18 8 -77 30 -132 50 -55 19 -109 40 -120 45 -11 5 -58
23 -105 40 -47 17 -94 35 -105 40 -11 5 -65 25 -120 45 -55 19 -109 40 -120
45 -57 27 -167 60 -201 59 -22 0 -57 -9 -79 -20z"/>
<path d="M7610 8022 c-25 -4 -178 -61 -237 -88 -17 -8 -35 -14 -39 -14 -4 0
-26 -9 -48 -19 -23 -11 -106 -45 -186 -76 -80 -31 -159 -63 -177 -71 -17 -8
-34 -14 -38 -14 -4 0 -21 -6 -38 -14 -18 -8 -120 -49 -227 -92 -107 -42 -201
-81 -208 -87 -18 -14 11 -44 52 -53 17 -3 36 -10 41 -14 6 -4 28 -13 50 -20
22 -7 54 -18 70 -25 17 -7 44 -18 60 -23 17 -6 84 -31 150 -57 66 -26 149 -57
185 -70 36 -13 90 -33 120 -45 30 -12 111 -42 180 -67 69 -25 152 -56 185 -68
33 -13 80 -30 105 -39 25 -9 54 -21 65 -26 44 -22 140 -50 170 -50 18 0 45 6
61 14 53 26 123 56 129 56 3 0 25 8 48 19 23 10 76 33 117 50 41 18 83 37 94
42 10 6 35 17 55 24 20 7 63 25 96 40 33 15 69 31 80 35 26 11 251 108 290
125 17 7 55 24 85 37 30 13 81 35 112 49 92 38 81 50 -107 114 -166 57 -223
77 -430 150 -104 37 -217 76 -250 86 -33 11 -69 23 -80 28 -11 5 -63 23 -115
41 -52 18 -104 36 -115 41 -24 11 -122 44 -185 63 -62 19 -91 23 -120 18z"/>
<path d="M3140 7474 c-19 -9 -78 -31 -130 -50 -52 -19 -104 -38 -115 -43 -11
-5 -40 -16 -65 -25 -25 -8 -76 -27 -115 -41 -38 -15 -90 -33 -115 -41 -25 -9
-54 -20 -65 -25 -18 -8 -50 -20 -175 -64 -25 -8 -54 -20 -65 -25 -25 -12 -308
-116 -400 -147 -92 -31 -120 -50 -104 -69 6 -8 16 -14 21 -14 9 0 48 -17 143
-60 22 -10 94 -42 160 -70 66 -28 134 -58 150 -65 17 -7 82 -36 145 -63 94
-41 364 -158 555 -242 126 -56 154 -65 190 -64 32 1 298 97 400 144 11 5 85
35 165 65 80 31 154 60 165 65 11 5 130 52 265 105 420 166 450 179 450 192 0
14 -31 29 -195 95 -55 22 -114 46 -132 54 -17 8 -34 14 -38 14 -3 0 -25 8 -48
19 -23 10 -100 42 -172 70 -71 29 -139 56 -150 61 -39 18 -321 132 -375 152
-30 11 -59 23 -65 28 -5 4 -27 13 -48 20 -22 7 -51 18 -65 26 -36 18 -128 17
-172 -2z"/>
<path d="M6115 7432 c-66 -26 -122 -49 -125 -53 -3 -3 -16 -10 -30 -14 -14 -4
-38 -13 -55 -20 -16 -7 -73 -30 -125 -50 -127 -49 -384 -151 -440 -174 -25
-10 -67 -28 -95 -39 -27 -12 -81 -33 -120 -48 -38 -14 -83 -33 -100 -40 -16
-7 -48 -20 -70 -27 -59 -21 -54 -46 15 -73 30 -12 66 -27 80 -33 14 -5 61 -24
105 -42 44 -17 99 -40 122 -50 23 -11 46 -19 50 -19 4 0 20 -6 35 -14 14 -8
43 -19 63 -26 20 -7 49 -18 63 -26 15 -8 30 -14 34 -14 4 0 32 -11 62 -25 30
-14 58 -25 61 -25 4 0 21 -6 38 -14 18 -8 100 -41 182 -74 250 -100 358 -143
395 -160 54 -26 125 -21 200 12 36 16 85 37 110 48 25 11 59 26 75 33 37 18
197 86 465 200 113 48 223 95 245 105 22 10 85 37 140 60 181 76 205 88 205
105 0 8 -6 18 -12 20 -57 19 -311 113 -383 142 -49 19 -101 39 -115 43 -14 5
-77 29 -142 54 -64 25 -122 46 -130 46 -8 0 -18 4 -24 8 -5 5 -31 17 -59 26
-27 10 -59 21 -70 26 -82 35 -114 48 -140 54 -16 4 -43 14 -60 21 -16 8 -61
25 -100 40 -38 14 -93 35 -120 45 -70 27 -93 25 -230 -28z"/>
<path d="M321 7392 c-6 -11 -6 -45 0 -91 5 -41 13 -135 19 -210 6 -75 17 -208
25 -296 9 -88 22 -236 30 -330 7 -93 21 -255 29 -360 22 -265 33 -341 52 -371
12 -17 66 -49 161 -95 78 -38 147 -69 153 -69 5 0 10 -4 10 -8 0 -5 18 -15 40
-22 22 -7 40 -16 40 -20 0 -4 18 -13 40 -20 22 -7 40 -17 40 -22 0 -4 3 -7 8
-6 4 2 32 -9 62 -24 378 -183 451 -218 459 -218 5 0 11 -3 13 -8 6 -14 138
-64 153 -58 18 7 19 56 5 276 -5 85 -14 225 -20 310 -69 1094 -67 1077 -87
1110 -17 29 -50 49 -163 95 -36 15 -69 31 -75 35 -5 4 -21 11 -35 15 -14 4
-47 18 -75 30 -48 22 -115 52 -180 80 -16 8 -156 68 -310 135 -154 66 -298
130 -321 140 -51 25 -61 25 -73 2z"/>
<path d="M9050 7346 c-52 -24 -124 -55 -160 -70 -36 -16 -83 -36 -105 -46 -22
-9 -56 -24 -75 -33 -19 -8 -55 -24 -80 -35 -25 -11 -99 -43 -165 -72 -66 -28
-133 -57 -150 -65 -16 -7 -84 -36 -150 -64 -162 -70 -202 -90 -220 -107 -22
-23 -34 -79 -40 -194 -9 -191 -25 -471 -40 -740 -36 -623 -43 -754 -38 -766
10 -27 39 -22 136 25 56 27 143 68 192 91 50 24 142 67 205 97 63 30 149 71
190 90 447 210 489 232 505 264 10 17 19 81 25 161 6 73 15 187 20 253 6 66
17 210 25 320 8 110 19 254 25 320 28 339 34 438 35 520 0 111 -1 111 -135 51z"/>
<path d="M4706 6869 c-22 -5 -44 -13 -50 -18 -6 -5 -36 -16 -66 -26 -30 -10
-59 -21 -65 -25 -5 -4 -21 -11 -35 -15 -14 -4 -49 -18 -78 -31 -29 -13 -57
-24 -62 -24 -6 0 -18 -4 -28 -10 -9 -5 -57 -25 -107 -45 -49 -20 -99 -40 -110
-45 -11 -5 -63 -25 -115 -45 -52 -20 -109 -43 -127 -51 -17 -8 -34 -14 -38
-14 -4 0 -21 -6 -38 -14 -18 -8 -97 -40 -177 -71 -147 -57 -166 -66 -253 -104
-81 -36 -69 -46 184 -155 24 -11 67 -29 94 -41 28 -13 84 -37 125 -55 41 -17
89 -37 105 -45 288 -125 456 -198 480 -210 17 -7 104 -46 195 -86 228 -101
197 -103 525 41 22 10 90 39 150 65 61 26 128 55 150 65 22 10 85 37 140 60
55 24 154 66 220 95 66 29 161 69 210 90 251 105 275 117 275 136 0 9 -99 59
-117 59 -4 1 -26 9 -48 20 -22 11 -44 19 -48 20 -8 0 -105 40 -184 76 -17 8
-34 14 -38 14 -4 0 -21 6 -38 14 -18 8 -68 29 -112 46 -44 17 -93 37 -110 45
-16 7 -84 35 -150 61 -66 26 -138 55 -160 65 -22 10 -80 34 -130 53 -81 31
-130 51 -220 91 -44 19 -104 25 -149 14z"/>
<path d="M1685 6803 c-13 -13 -16 -29 -11 -77 3 -34 12 -178 21 -321 8 -143
20 -325 25 -405 6 -80 17 -260 25 -400 25 -424 30 -476 48 -503 10 -16 72 -52
170 -100 365 -179 507 -247 516 -247 6 0 11 -4 11 -9 0 -5 16 -15 36 -21 20
-7 117 -52 215 -101 98 -49 183 -89 188 -89 6 0 11 -4 11 -10 0 -5 6 -10 13
-10 6 0 35 -11 62 -25 62 -30 101 -32 108 -6 5 19 0 173 -23 821 -27 762 -31
857 -36 881 -8 42 -40 63 -179 124 -71 30 -143 62 -160 70 -16 8 -84 37 -150
66 -66 28 -140 60 -165 71 -25 11 -58 26 -75 33 -16 8 -109 48 -205 90 -96 42
-184 80 -195 85 -49 23 -228 100 -231 100 -1 0 -10 -7 -19 -17z"/>
<path d="M7715 6765 c-16 -8 -64 -28 -105 -46 -41 -17 -108 -46 -148 -65 -41
-19 -76 -34 -79 -34 -3 0 -76 -31 -162 -69 -86 -38 -185 -81 -221 -96 -36 -15
-87 -37 -115 -49 -27 -13 -68 -31 -90 -40 -295 -128 -351 -155 -369 -180 -22
-29 -22 -27 -46 -841 -6 -220 -15 -503 -19 -630 -4 -126 -4 -240 0 -252 5 -13
16 -23 25 -23 9 0 77 29 152 65 74 36 136 65 139 65 2 0 65 30 141 66 75 36
166 80 202 96 36 17 138 66 228 109 90 44 165 79 167 79 3 0 65 29 139 65 130
63 135 66 150 107 11 30 19 108 26 248 6 113 15 282 20 375 5 94 17 305 25
470 9 165 19 359 24 430 4 72 4 138 -1 148 -10 20 -41 21 -83 2z"/>
<path d="M3202 6137 c-11 -13 -9 -144 12 -807 3 -91 11 -318 16 -505 6 -187
13 -359 16 -382 7 -55 39 -86 139 -133 44 -21 166 -79 270 -130 545 -265 810
-393 909 -440 51 -24 74 -30 85 -23 14 9 16 101 19 879 2 816 1 871 -16 902
-21 41 -43 53 -252 142 -91 39 -183 79 -205 90 -78 36 -134 60 -139 60 -3 0
-31 12 -63 26 -172 78 -483 214 -488 214 -3 0 -43 18 -90 40 -47 22 -89 40
-93 40 -4 1 -25 9 -47 20 -48 23 -59 24 -73 7z"/>
<path d="M6190 6100 c-36 -15 -155 -67 -265 -115 -110 -48 -283 -123 -385
-167 -102 -44 -205 -89 -230 -100 -25 -11 -61 -27 -80 -35 -345 -150 -364
-160 -382 -194 -17 -32 -18 -82 -18 -889 0 -878 0 -880 37 -880 7 0 75 30 151
66 75 37 173 83 217 104 44 21 132 62 195 93 63 30 150 71 193 91 252 117 520
245 557 263 71 37 67 -2 89 818 11 407 23 784 27 838 5 85 4 100 -11 117 -22
24 -15 25 -95 -10z"/>
<path d="M491 5570 c-17 -10 -13 -82 23 -480 14 -157 30 -339 36 -405 6 -66
15 -172 20 -235 25 -293 40 -432 50 -450 12 -22 61 -60 105 -82 17 -8 86 -44
155 -81 69 -36 145 -76 170 -89 25 -13 47 -26 48 -30 2 -5 8 -8 13 -8 5 0 67
-31 137 -69 497 -267 512 -275 528 -259 15 15 16 -16 -35 798 -50 784 -50 783
-69 810 -21 29 -191 115 -1032 522 -69 34 -127 62 -130 64 -3 1 -12 -1 -19 -6z"/>
<path d="M8945 5521 c-95 -45 -218 -103 -389 -185 -87 -42 -159 -76 -161 -76
-5 0 -430 -204 -494 -237 -30 -16 -62 -39 -72 -53 -19 -26 -22 -57 -69 -905
-5 -93 -15 -260 -22 -370 -18 -286 -17 -349 4 -353 18 -3 48 11 348 165 96 50
240 124 320 165 80 41 223 115 318 164 124 63 178 96 187 114 14 28 27 144 51
465 8 116 20 262 25 325 5 63 11 151 14 195 3 44 8 96 10 115 3 19 7 71 10
115 3 44 10 144 16 222 6 78 8 147 4 153 -10 16 -35 11 -100 -19z"/>
<path d="M1793 4914 c-3 -9 -1 -87 5 -173 11 -153 16 -229 47 -736 8 -137 17
-279 20 -315 2 -36 7 -119 11 -185 7 -144 9 -157 25 -186 18 -35 26 -41 129
-96 163 -87 222 -118 315 -168 50 -26 113 -60 140 -75 28 -15 97 -52 155 -83
58 -30 166 -87 240 -127 196 -106 264 -140 276 -140 32 0 34 26 24 286 -23
633 -32 875 -39 1101 -6 205 -10 245 -25 268 -13 20 -119 77 -419 225 -221
108 -431 211 -467 228 -36 16 -139 67 -229 111 -91 45 -173 81 -183 81 -10 0
-21 -7 -25 -16z"/>
<path d="M7640 4900 c-8 -5 -58 -29 -110 -54 -52 -24 -153 -72 -225 -106 -225
-108 -295 -140 -305 -140 -6 0 -10 -4 -10 -10 0 -5 -4 -10 -9 -10 -10 0 -91
-37 -316 -145 -273 -130 -286 -137 -299 -164 -18 -36 -25 -136 -36 -561 -6
-201 -15 -522 -21 -713 -5 -191 -7 -356 -4 -367 4 -11 13 -20 22 -20 14 0 195
91 708 356 110 56 279 143 375 192 139 71 178 96 191 119 15 30 22 123 49 628
6 105 15 260 20 345 19 306 32 630 26 645 -6 17 -33 19 -56 5z"/>
<path d="M3261 4206 c-11 -13 -9 -112 29 -1266 6 -173 13 -329 15 -346 7 -40
43 -73 137 -122 42 -22 73 -44 70 -48 -4 -4 1 -4 11 -1 9 4 17 3 17 -1 0 -4
15 -15 33 -23 17 -9 79 -41 137 -72 58 -30 130 -68 159 -83 30 -16 60 -32 65
-37 6 -4 49 -27 96 -51 124 -62 304 -159 310 -165 11 -13 290 -151 304 -151
37 0 38 20 31 853 -4 446 -11 822 -16 834 -7 18 -77 73 -93 73 -4 0 -280 134
-681 330 -435 213 -596 290 -604 290 -5 0 -14 -6 -20 -14z"/>
<path d="M6160 4194 c-14 -8 -101 -51 -195 -95 -93 -45 -215 -103 -270 -129
-169 -81 -337 -161 -400 -190 -279 -129 -432 -209 -448 -233 -16 -25 -17 -84
-15 -854 l3 -828 22 -3 c14 -2 84 29 175 76 228 119 399 207 758 390 179 91
337 174 353 184 54 38 55 45 66 464 6 214 16 568 22 787 6 219 8 409 5 423 -7
28 -36 31 -76 8z"/>
<path d="M630 3825 c-6 -8 -9 -18 -6 -24 3 -5 15 -119 26 -253 23 -292 43
-521 70 -803 11 -116 20 -231 20 -255 0 -25 9 -63 19 -86 20 -43 11 -38 296
-199 66 -38 131 -76 145 -85 14 -9 50 -30 80 -47 30 -16 174 -98 319 -182 145
-84 270 -150 278 -147 16 6 16 45 3 251 -6 83 -15 222 -20 310 -6 88 -14 221
-20 295 -5 74 -14 232 -20 350 -8 152 -16 226 -27 253 -17 39 -28 47 -208 142
-49 26 -146 78 -215 115 -69 37 -150 80 -180 95 -30 16 -84 45 -120 65 -36 21
-114 63 -175 95 -60 32 -138 73 -172 91 -69 38 -76 40 -93 19z"/>
<path d="M8755 3737 c-208 -109 -412 -215 -655 -340 -340 -175 -353 -182 -372
-214 -12 -21 -19 -74 -27 -213 -6 -102 -16 -255 -21 -340 -25 -392 -45 -763
-45 -845 0 -111 4 -113 112 -52 96 54 177 99 263 145 36 19 103 56 150 82 47
26 110 61 140 77 254 138 463 259 479 279 21 27 24 47 51 404 11 146 24 315
30 375 22 244 45 564 45 630 0 54 -3 70 -15 72 -8 2 -69 -26 -135 -60z"/>
<path d="M1901 3141 c-6 -10 -9 -20 -7 -22 2 -2 11 -128 20 -279 9 -151 21
-331 26 -400 5 -69 17 -260 26 -425 12 -215 20 -309 31 -332 12 -25 41 -47
127 -97 61 -35 183 -106 271 -157 88 -51 178 -102 200 -115 76 -41 490 -281
550 -317 65 -40 77 -43 93 -24 10 12 8 94 -17 837 -24 685 -21 639 -51 674
-16 17 -59 47 -96 67 -71 37 -302 161 -409 219 -33 18 -107 57 -165 88 -58 30
-163 86 -235 125 -71 38 -168 90 -215 115 -47 25 -89 49 -94 53 -17 15 -45 10
-55 -10z"/>
<path d="M7510 3091 c-84 -42 -686 -353 -845 -436 -55 -29 -138 -72 -185 -95
-127 -65 -160 -88 -175 -124 -10 -24 -17 -135 -24 -417 -15 -542 -20 -722 -27
-895 -6 -160 -2 -194 23 -194 8 0 79 35 157 79 77 43 254 140 391 216 585 321
666 368 682 392 13 19 19 62 24 162 4 75 10 174 13 221 18 280 48 884 49 990
2 144 2 144 -83 101z"/>
<path d="M3314 2385 c-4 -8 -1 -162 5 -343 6 -180 16 -493 21 -697 12 -431 14
-445 43 -473 18 -17 136 -88 307 -184 19 -11 76 -44 125 -73 117 -69 669 -387
760 -437 38 -21 76 -37 85 -36 13 3 15 85 18 748 2 693 1 747 -15 780 -19 36
-63 63 -388 235 -66 34 -169 90 -230 122 -157 86 -220 120 -395 213 -85 46
-187 100 -227 121 -78 42 -101 47 -109 24z"/>
<path d="M6075 2351 c-106 -57 -449 -235 -455 -236 -3 0 -14 -6 -25 -12 -47
-25 -460 -240 -630 -326 -50 -25 -102 -58 -115 -72 l-25 -26 -3 -757 c-4 -684
-3 -759 12 -771 13 -11 36 -2 158 65 79 42 168 92 198 109 30 18 84 48 120 67
64 35 145 79 415 228 77 43 176 97 220 121 141 75 169 95 186 125 14 24 18 88
28 394 22 703 31 1093 25 1112 -8 26 -30 22 -109 -21z"/>
</g>
</svg>
