<?xml version="1.0" standalone="no"?>
<!DOCTYPE svg PUBLIC "-//W3C//DTD SVG 20010904//EN"
 "http://www.w3.org/TR/2001/REC-SVG-20010904/DTD/svg10.dtd">
<svg version="1.0" xmlns="http://www.w3.org/2000/svg"
 width="300.000000pt" height="300.000000pt" viewBox="0 0 300.000000 300.000000"
 preserveAspectRatio="xMidYMid meet">
<metadata>
Created by potrace 1.10, written by Peter Selinger 2001-2011
</metadata>
<g transform="translate(0.000000,300.000000) scale(0.100000,-0.100000)"
fill="#000000" stroke="none">
<path d="M1230 2414 c-129 -75 -293 -169 -365 -210 -170 -98 -179 -105 -172
-135 5 -20 79 -67 359 -231 379 -221 366 -216 367 -138 1 61 -19 110 -69 165
-66 73 -82 107 -82 175 0 233 301 322 429 128 22 -33 28 -55 31 -113 5 -86
-12 -127 -82 -195 -26 -25 -51 -60 -56 -80 -11 -39 -13 -133 -4 -143 3 -3 34
11 67 32 34 21 143 84 242 141 418 240 416 239 413 268 -3 29 -50 58 -547 343
-174 100 -233 129 -260 129 -28 0 -91 -32 -271 -136z m334 80 c7 -9 18 -14 24
-10 6 3 16 1 24 -6 24 -23 77 -58 87 -58 5 0 11 -3 13 -7 2 -5 19 -16 38 -27
19 -10 62 -33 95 -51 33 -18 91 -51 128 -74 116 -71 151 -92 180 -104 15 -6
27 -15 27 -19 0 -4 16 -14 35 -22 43 -18 56 -45 30 -60 -10 -6 -27 -19 -37
-29 -10 -10 -23 -15 -28 -12 -6 4 -10 1 -10 -4 0 -6 -5 -11 -10 -11 -6 0 -33
-16 -60 -35 -27 -19 -53 -35 -58 -35 -4 0 -41 -20 -81 -45 -40 -24 -102 -61
-139 -81 -37 -20 -83 -47 -102 -60 -19 -13 -41 -24 -48 -24 -7 0 -20 -7 -29
-15 -18 -18 -33 -11 -33 16 0 27 43 110 70 134 47 42 72 96 79 169 5 62 3 77
-18 121 -13 28 -36 62 -52 78 -16 15 -26 27 -22 27 4 0 -8 9 -28 19 -77 42
-201 46 -246 9 -7 -6 -13 -7 -13 -3 0 4 -6 2 -13 -4 -8 -6 -17 -8 -20 -4 -4 3
-7 0 -7 -8 0 -8 -14 -27 -31 -44 -95 -93 -90 -257 12 -366 18 -19 40 -47 50
-64 18 -29 25 -76 13 -88 -7 -7 -64 12 -64 22 0 3 -15 12 -32 20 -18 8 -35 17
-38 20 -8 10 -61 39 -120 68 -30 14 -56 30 -58 35 -2 4 -11 8 -20 8 -8 0 -13
3 -9 6 3 4 -17 18 -46 33 -29 14 -54 28 -57 32 -3 3 -28 17 -56 31 -115 59
-139 76 -142 98 -4 25 11 38 85 76 29 15 61 35 70 44 10 9 49 32 85 51 89 45
115 60 165 92 24 15 46 27 51 27 4 0 24 11 43 25 19 14 42 24 51 21 10 -2 16
0 15 6 -1 5 13 18 32 28 19 11 39 24 45 30 5 5 16 10 24 10 8 0 26 9 40 21 32
25 96 21 116 -7z"/>
<path d="M564 1845 c-18 -13 -19 -37 -19 -457 l0 -443 23 -32 c13 -18 63 -56
115 -86 280 -163 417 -243 457 -265 25 -14 77 -44 115 -67 96 -56 102 -58 125
-35 19 19 20 35 20 445 0 463 0 465 -56 516 -16 14 -99 66 -184 114 -85 49
-240 137 -344 197 -221 128 -228 131 -252 113z m92 -50 c29 -14 55 -29 58 -34
3 -5 23 -18 43 -29 65 -33 117 -64 145 -83 14 -11 32 -19 40 -19 8 0 19 -5 25
-11 12 -12 20 -17 99 -62 58 -32 140 -80 211 -122 90 -53 88 -40 88 -499 0
-221 -2 -411 -4 -423 -4 -29 -27 -29 -71 0 -19 13 -60 37 -90 53 -30 16 -57
31 -60 34 -3 3 -25 16 -50 29 -25 13 -52 29 -60 36 -8 7 -51 32 -95 56 -44 24
-89 49 -100 56 -11 7 -27 15 -35 19 -21 10 -134 78 -140 84 -3 3 -17 13 -31
22 -57 36 -59 49 -59 480 0 216 3 403 6 416 8 28 15 28 80 -3z"/>
<path d="M2358 1831 c-29 -16 -172 -97 -318 -181 -146 -84 -285 -164 -310
-178 -25 -14 -58 -37 -74 -51 -56 -51 -56 -54 -56 -511 0 -271 4 -428 10 -441
17 -32 53 -22 167 44 59 35 216 126 348 202 293 169 291 168 315 215 19 37 20
61 20 454 0 229 -4 426 -9 439 -14 37 -36 39 -93 8z m64 -25 c4 -6 8 -193 8
-415 0 -358 -2 -408 -17 -440 -24 -50 -26 -51 -164 -132 -68 -39 -142 -82
-164 -95 -22 -13 -67 -38 -100 -55 -32 -17 -77 -43 -100 -57 -22 -15 -60 -37
-85 -51 -25 -13 -59 -35 -77 -48 -17 -13 -44 -25 -60 -26 l-28 -2 -2 418 c-3
401 -2 420 17 457 11 22 33 48 48 57 15 10 29 20 32 23 3 3 21 14 40 24 19 10
89 50 155 89 66 38 149 85 185 105 36 19 82 46 102 59 21 12 42 23 47 23 6 0
15 8 20 18 6 9 11 13 11 7 0 -7 3 -7 8 0 10 14 84 51 102 51 8 1 18 -4 22 -10z"/>
</g>
</svg>
