<?xml version="1.0" standalone="no"?>
<!DOCTYPE svg PUBLIC "-//W3C//DTD SVG 20010904//EN"
 "http://www.w3.org/TR/2001/REC-SVG-20010904/DTD/svg10.dtd">
<svg version="1.0" xmlns="http://www.w3.org/2000/svg"
 width="820.000000pt" height="512.000000pt" viewBox="0 0 820.000000 512.000000"
 preserveAspectRatio="xMidYMid meet">
<metadata>
Created by potrace 1.16, written by Peter Selinger 2001-2019
</metadata>
<g transform="translate(0.000000,512.000000) scale(0.100000,-0.100000)"
fill="#000000" stroke="none">
<path d="M3905 4713 c-910 -79 -1685 -739 -1905 -1622 -48 -193 -63 -315 -63
-531 0 -216 15 -338 63 -531 167 -672 661 -1230 1314 -1484 528 -206 1137
-191 1659 41 692 307 1175 963 1267 1724 13 109 13 391 0 500 -102 841 -671
1538 -1472 1803 -136 45 -266 73 -426 92 -114 13 -330 17 -437 8z m226 -595
c42 -89 44 -97 44 -183 l0 -90 -112 -210 c-61 -115 -120 -236 -129 -268 -10
-31 -23 -56 -29 -54 -5 2 -32 47 -60 101 -44 85 -50 105 -53 171 -2 41 1 89 7
107 15 43 273 518 281 518 4 0 27 -42 51 -92z m181 -344 c52 -104 53 -109 53
-193 l0 -86 -140 -257 c-77 -142 -143 -258 -146 -258 -9 0 -76 148 -88 195
-15 55 -14 125 3 171 7 22 59 125 115 229 56 105 109 216 119 247 9 32 20 58
24 58 4 0 31 -48 60 -106z m-443 -546 c107 -205 198 -379 204 -385 5 -7 13
-10 18 -8 4 3 97 176 206 385 l198 379 313 1 312 0 0 -115 0 -115 -35 0 c-42
0 -89 -22 -101 -47 -11 -22 -18 -902 -9 -992 8 -79 32 -106 99 -116 l46 -7 0
-127 0 -126 143 -48 c138 -47 365 -150 396 -182 28 -28 0 -35 -74 -19 -617
130 -1552 169 -2278 94 -211 -22 -472 -61 -637 -96 -133 -28 -150 -29 -150
-11 0 29 209 133 405 202 l120 43 3 135 3 135 46 7 c28 4 55 16 69 30 l24 24
0 515 c0 356 -3 523 -11 539 -14 30 -48 47 -94 47 l-35 0 0 115 0 115 313 0
312 0 194 -372z"/>
<path d="M3577 3003 c-11 -10 -8 -663 3 -708 12 -51 39 -73 101 -81 l49 -7 0
-69 0 -70 88 8 c103 10 569 9 600 0 21 -7 22 -5 22 62 l0 69 48 7 c62 8 89 28
102 74 6 22 10 173 10 375 0 299 -2 338 -16 344 -9 3 -23 -2 -34 -13 -10 -10
-111 -179 -225 -374 -114 -195 -215 -363 -224 -372 -9 -10 -21 -14 -27 -10 -6
4 -106 171 -224 372 -117 201 -220 373 -228 383 -16 18 -34 22 -45 10z"/>
</g>
</svg>
