<?xml version="1.0" standalone="no"?>
<!DOCTYPE svg PUBLIC "-//W3C//DTD SVG 20010904//EN"
 "http://www.w3.org/TR/2001/REC-SVG-20010904/DTD/svg10.dtd">
<svg version="1.0" xmlns="http://www.w3.org/2000/svg"
 width="390.000000pt" height="390.000000pt" viewBox="0 0 390.000000 390.000000"
 preserveAspectRatio="xMidYMid meet">
<metadata>
Created by potrace 1.16, written by Peter Selinger 2001-2019
</metadata>
<g transform="translate(0.000000,390.000000) scale(0.100000,-0.100000)"
fill="#000000" stroke="none">
<path d="M1420 3760 c0 -5 11 -34 24 -64 18 -39 30 -55 47 -58 44 -6 46 -30 7
-120 -51 -117 -95 -247 -103 -301 -6 -41 -11 -47 -39 -56 -147 -47 -308 -65
-497 -58 l-147 5 -7 -396 c-10 -537 -3 -854 24 -1002 47 -269 142 -508 290
-738 33 -50 57 -92 54 -92 -4 0 -58 14 -121 31 -62 17 -116 28 -118 26 -3 -2
12 -49 32 -105 l36 -100 -42 -76 c-23 -43 -41 -79 -39 -80 8 -8 208 -64 272
-76 l67 -14 0 -52 c0 -29 4 -55 9 -59 15 -9 258 -44 359 -51 l92 -7 78 -57
c84 -63 248 -160 269 -160 34 0 217 108 315 187 33 27 48 31 125 37 113 9 345
44 354 54 5 4 9 29 11 56 l3 50 95 21 c131 30 240 64 240 75 0 5 -16 43 -37
84 l-36 74 36 98 c20 54 34 100 32 102 -2 2 -57 -10 -121 -27 -65 -17 -120
-29 -122 -27 -2 2 19 37 46 77 114 170 211 386 263 584 63 243 70 361 62 1020
l-6 540 -206 0 c-209 0 -277 8 -418 50 -49 14 -53 18 -58 53 -10 57 -54 187
-96 286 -22 49 -39 97 -39 106 0 21 19 40 41 40 10 0 26 21 43 59 14 32 26 61
26 65 0 3 -247 6 -550 6 -349 0 -550 -4 -550 -10z m1030 -50 c0 -6 -10 -14
-23 -19 -13 -5 -29 -16 -36 -25 -12 -14 -60 -16 -426 -16 -399 0 -412 1 -430
20 -10 11 -24 20 -32 20 -7 0 -13 7 -13 15 0 13 60 15 480 15 321 0 480 -3
480 -10z m-32 -262 c78 -198 83 -222 92 -458 7 -180 12 -231 33 -312 24 -89
98 -279 119 -302 4 -6 8 -14 8 -18 0 -4 -315 -8 -700 -8 -385 0 -700 2 -700 5
0 3 8 22 19 43 40 79 93 225 112 309 14 62 22 150 28 298 9 230 20 279 98 463
l35 82 408 0 407 0 41 -102z m538 -1154 c-3 -9 -6 -20 -6 -25 0 -5 -391 -9
-979 -9 -883 0 -979 2 -985 16 -3 9 -6 20 -6 25 0 5 396 9 991 9 900 0 991 -1
985 -16z m-396 -554 l0 -220 -25 0 -25 0 0 195 0 195 -540 0 -540 0 0 -195 0
-195 -30 0 -30 0 0 220 0 220 595 0 595 0 0 -220z m-829 -77 c22 -21 46 -55
53 -76 l13 -38 13 42 c14 41 80 109 107 109 8 0 13 -12 13 -30 0 -18 -5 -30
-13 -30 -20 0 -47 -33 -62 -77 -13 -37 -15 -38 -60 -38 -46 0 -47 1 -60 40 -8
22 -28 52 -45 66 -32 27 -41 69 -15 69 9 0 34 -17 56 -37z m330 15 c20 -14 45
-45 61 -78 16 -33 28 -47 28 -35 1 46 78 135 118 135 25 0 12 -45 -21 -71 -20
-16 -38 -43 -45 -68 -13 -41 -13 -41 -60 -41 l-48 0 -12 46 c-9 33 -20 50 -42
62 -22 12 -30 24 -30 45 0 33 7 34 51 5z m-390 -58 c45 -25 48 -49 49 -381 l1
-314 -101 -3 -101 -3 3 326 3 327 33 29 c34 30 77 38 113 19z m348 -5 c16 -8
34 -28 40 -46 7 -21 11 -141 11 -341 l0 -309 -100 3 -101 3 0 313 c1 264 3
317 16 343 25 47 81 62 134 34z m363 -14 l33 -29 3 -327 3 -326 -103 3 -103 3
-3 280 c-2 154 0 300 3 324 14 94 101 132 167 72z m-952 -537 l0 -346 -22 6
c-13 3 -26 6 -30 6 -5 0 -8 153 -8 340 l0 340 30 0 30 0 0 -346z m1130 6 c0
-200 -4 -340 -9 -340 -5 0 -16 -3 -25 -6 -14 -6 -16 28 -16 340 l0 346 25 0
25 0 0 -340z m-1604 -204 c27 -8 75 -20 107 -26 89 -18 100 -38 98 -186 -1
-65 -3 -120 -5 -121 -5 -5 -137 25 -208 47 l-67 21 31 64 32 65 -22 68 c-22
68 -25 82 -19 82 2 0 26 -6 53 -14z m2084 10 c0 -3 -11 -36 -25 -75 l-26 -70
31 -62 c18 -34 28 -65 23 -70 -9 -9 -234 -69 -259 -69 -11 0 -14 23 -14 121 0
159 4 164 143 200 110 28 127 31 127 25z m-1650 -191 c212 -25 489 -38 690
-31 196 6 464 27 574 46 32 5 63 7 68 4 6 -4 8 -65 6 -146 -2 -112 -6 -142
-18 -148 -17 -9 -208 -34 -375 -50 -142 -13 -598 -13 -740 0 -128 12 -340 38
-372 47 -23 5 -23 8 -23 147 0 79 3 146 7 150 5 4 21 5 38 1 16 -3 82 -12 145
-20z"/>
<path d="M1657 3449 c-14 -25 -22 -30 -41 -25 -22 5 -27 0 -54 -67 -55 -133
-62 -171 -72 -382 -10 -235 -33 -336 -127 -552 -4 -10 121 -13 605 -13 l609 0
-35 88 c-65 164 -91 293 -98 485 -6 186 -18 251 -66 369 -28 68 -34 77 -53 72
-24 -6 -55 18 -55 42 0 12 -46 14 -297 14 l-298 0 -18 -31z m381 -242 c103
-27 180 -108 202 -213 11 -50 14 -54 40 -54 l28 0 -18 -47 c-14 -37 -23 -49
-42 -51 -20 -2 -29 -19 -68 -124 -25 -66 -46 -124 -48 -129 -2 -5 10 -9 27 -9
29 0 31 -3 31 -35 l0 -35 -220 0 -220 0 0 35 c0 31 3 35 25 35 14 0 25 5 25
11 0 5 -21 64 -46 130 -37 94 -51 119 -66 119 -13 0 -25 14 -38 46 -11 25 -20
47 -20 49 0 2 12 5 27 7 23 3 28 10 38 55 19 82 69 149 140 186 74 38 124 44
203 24z"/>
<path d="M1906 3116 c-109 -41 -156 -158 -105 -264 56 -115 221 -135 308 -36
59 67 63 160 10 233 -49 68 -136 95 -213 67z"/>
<path d="M1838 589 c-20 -11 -24 -59 -6 -77 9 -9 8 -16 -5 -30 -53 -58 24
-131 86 -82 31 25 35 55 10 82 -14 16 -15 23 -5 38 15 25 15 53 0 68 -15 15
-57 15 -80 1z"/>
</g>
</svg>
